<mxfile host="app.diagrams.net" modified="2022-10-12T13:48:33.836Z" agent="5.0 (Macintosh; Intel Mac OS X 10_15_7) AppleWebKit/537.36 (KHTML, like Gecko) Chrome/105.0.0.0 Safari/537.36" etag="B8raOLnCQ_W43IEmEsMd" version="20.4.0" type="github">
  <diagram id="e7RS2uoysq9J0f1DwmJB" name="Page-1">
    <mxGraphModel dx="745" dy="470" grid="1" gridSize="10" guides="1" tooltips="1" connect="1" arrows="1" fold="1" page="1" pageScale="1" pageWidth="827" pageHeight="1169" math="0" shadow="0">
      <root>
        <mxCell id="0" />
        <mxCell id="1" parent="0" />
        <mxCell id="pcXwG9OV6RPyFQ0dPs7N-16" value="" style="edgeStyle=orthogonalEdgeStyle;rounded=0;orthogonalLoop=1;jettySize=auto;html=1;" edge="1" parent="1" source="pcXwG9OV6RPyFQ0dPs7N-14" target="pcXwG9OV6RPyFQ0dPs7N-15">
          <mxGeometry relative="1" as="geometry" />
        </mxCell>
        <mxCell id="pcXwG9OV6RPyFQ0dPs7N-23" value="" style="edgeStyle=orthogonalEdgeStyle;rounded=0;orthogonalLoop=1;jettySize=auto;html=1;entryX=0.5;entryY=0;entryDx=0;entryDy=0;" edge="1" parent="1" source="pcXwG9OV6RPyFQ0dPs7N-14" target="pcXwG9OV6RPyFQ0dPs7N-21">
          <mxGeometry relative="1" as="geometry" />
        </mxCell>
        <mxCell id="pcXwG9OV6RPyFQ0dPs7N-25" value="" style="edgeStyle=orthogonalEdgeStyle;rounded=0;orthogonalLoop=1;jettySize=auto;html=1;" edge="1" parent="1" source="pcXwG9OV6RPyFQ0dPs7N-14" target="pcXwG9OV6RPyFQ0dPs7N-17">
          <mxGeometry relative="1" as="geometry" />
        </mxCell>
        <mxCell id="pcXwG9OV6RPyFQ0dPs7N-14" value="Controller" style="rounded=0;whiteSpace=wrap;html=1;" vertex="1" parent="1">
          <mxGeometry x="330" y="80" width="120" height="60" as="geometry" />
        </mxCell>
        <mxCell id="pcXwG9OV6RPyFQ0dPs7N-18" value="" style="edgeStyle=orthogonalEdgeStyle;rounded=0;orthogonalLoop=1;jettySize=auto;html=1;dashed=1;" edge="1" parent="1" source="pcXwG9OV6RPyFQ0dPs7N-15" target="pcXwG9OV6RPyFQ0dPs7N-17">
          <mxGeometry relative="1" as="geometry" />
        </mxCell>
        <mxCell id="pcXwG9OV6RPyFQ0dPs7N-28" value="change" style="edgeLabel;html=1;align=center;verticalAlign=middle;resizable=0;points=[];" vertex="1" connectable="0" parent="pcXwG9OV6RPyFQ0dPs7N-18">
          <mxGeometry x="-0.0571" relative="1" as="geometry">
            <mxPoint as="offset" />
          </mxGeometry>
        </mxCell>
        <mxCell id="pcXwG9OV6RPyFQ0dPs7N-15" value="currentModel" style="rounded=0;whiteSpace=wrap;html=1;" vertex="1" parent="1">
          <mxGeometry x="64" y="260" width="120" height="60" as="geometry" />
        </mxCell>
        <mxCell id="pcXwG9OV6RPyFQ0dPs7N-20" value="" style="edgeStyle=orthogonalEdgeStyle;rounded=0;orthogonalLoop=1;jettySize=auto;html=1;dashed=1;" edge="1" parent="1" source="pcXwG9OV6RPyFQ0dPs7N-17" target="pcXwG9OV6RPyFQ0dPs7N-19">
          <mxGeometry relative="1" as="geometry" />
        </mxCell>
        <mxCell id="pcXwG9OV6RPyFQ0dPs7N-29" value="change" style="edgeLabel;html=1;align=center;verticalAlign=middle;resizable=0;points=[];" vertex="1" connectable="0" parent="pcXwG9OV6RPyFQ0dPs7N-20">
          <mxGeometry x="-0.3304" y="2" relative="1" as="geometry">
            <mxPoint as="offset" />
          </mxGeometry>
        </mxCell>
        <mxCell id="pcXwG9OV6RPyFQ0dPs7N-17" value="currentModel" style="rounded=0;whiteSpace=wrap;html=1;" vertex="1" parent="1">
          <mxGeometry x="254" y="260" width="120" height="60" as="geometry" />
        </mxCell>
        <mxCell id="pcXwG9OV6RPyFQ0dPs7N-22" value="" style="edgeStyle=orthogonalEdgeStyle;rounded=0;orthogonalLoop=1;jettySize=auto;html=1;dashed=1;" edge="1" parent="1" source="pcXwG9OV6RPyFQ0dPs7N-19" target="pcXwG9OV6RPyFQ0dPs7N-21">
          <mxGeometry relative="1" as="geometry" />
        </mxCell>
        <mxCell id="pcXwG9OV6RPyFQ0dPs7N-30" value="change" style="edgeLabel;html=1;align=center;verticalAlign=middle;resizable=0;points=[];" vertex="1" connectable="0" parent="pcXwG9OV6RPyFQ0dPs7N-22">
          <mxGeometry x="-0.2076" relative="1" as="geometry">
            <mxPoint as="offset" />
          </mxGeometry>
        </mxCell>
        <mxCell id="pcXwG9OV6RPyFQ0dPs7N-19" value="currentModel" style="rounded=0;whiteSpace=wrap;html=1;" vertex="1" parent="1">
          <mxGeometry x="444" y="260" width="120" height="60" as="geometry" />
        </mxCell>
        <mxCell id="pcXwG9OV6RPyFQ0dPs7N-21" value="currentModel" style="rounded=0;whiteSpace=wrap;html=1;" vertex="1" parent="1">
          <mxGeometry x="644" y="260" width="120" height="60" as="geometry" />
        </mxCell>
        <mxCell id="pcXwG9OV6RPyFQ0dPs7N-27" value="" style="edgeStyle=orthogonalEdgeStyle;rounded=0;orthogonalLoop=1;jettySize=auto;html=1;entryX=0.5;entryY=0;entryDx=0;entryDy=0;exitX=1;exitY=0.5;exitDx=0;exitDy=0;" edge="1" parent="1" source="pcXwG9OV6RPyFQ0dPs7N-14" target="pcXwG9OV6RPyFQ0dPs7N-19">
          <mxGeometry relative="1" as="geometry">
            <mxPoint x="460" y="120" as="sourcePoint" />
            <mxPoint x="720" y="390" as="targetPoint" />
          </mxGeometry>
        </mxCell>
      </root>
    </mxGraphModel>
  </diagram>
</mxfile>
